<?xml version="1.0" encoding="UTF-8"?>
<svg width="1080px" height="1920px" viewBox="0 0 1080 1920" xmlns="http://www.w3.org/2000/svg" shape-rendering="crispEdges">
<defs>
    <linearGradient id="bgMain" x1="0%" x2="100%" y1="0%" y2="100%">
      <stop offset="0%" stop-color="#0b1220" />
      <stop offset="100%" stop-color="#0f1c3a" />
    </linearGradient>
    <linearGradient id="card" x1="0%" x2="0%" y1="0%" y2="100%">
      <stop offset="0%" stop-color="#101a2f" />
      <stop offset="100%" stop-color="#0c1324" />
    </linearGradient>
    </defs>
<rect x="0" y="0" width="1080" height="1920" fill="url(#bgMain)" />
<rect x="200" y="230" width="680" height="970" fill="url(#card)" stroke="#1c2740" stroke-width="2" rx="28" />
<text x="80" y="130" fill="#7cf2c7" font-family="Inter, SF Pro Display, sans-serif" font-size="30" font-weight="600" opacity="1.0">Tetris Weather</text>
<text x="80" y="180" fill="#e5edff" font-family="Inter, SF Pro Display, sans-serif" font-size="48" font-weight="700" opacity="1.0">St. Petersburg · 09:30</text>
<text x="80" y="230" fill="#a6c8ff" font-family="Inter, SF Pro Display, sans-serif" font-size="26" font-weight="500" opacity="1.0">Light Snow · Feels -6°C</text>
<rect x="220" y="280" width="60" height="60" fill="#121c33" opacity="0.35" rx="10" />
<rect x="280" y="280" width="60" height="60" fill="#121c33" opacity="0.35" rx="10" />
<rect x="340" y="280" width="60" height="60" fill="#121c33" opacity="0.35" rx="10" />
<rect x="400" y="280" width="60" height="60" fill="#121c33" opacity="0.35" rx="10" />
<rect x="460" y="280" width="60" height="60" fill="#121c33" opacity="0.35" rx="10" />
<rect x="520" y="280" width="60" height="60" fill="#121c33" opacity="0.35" rx="10" />
<rect x="580" y="280" width="60" height="60" fill="#121c33" opacity="0.35" rx="10" />
<rect x="640" y="280" width="60" height="60" fill="#121c33" opacity="0.35" rx="10" />
<rect x="700" y="280" width="60" height="60" fill="#121c33" opacity="0.35" rx="10" />
<rect x="760" y="280" width="60" height="60" fill="#121c33" opacity="0.35" rx="10" />
<rect x="220" y="340" width="60" height="60" fill="#121c33" opacity="0.35" rx="10" />
<rect x="280" y="340" width="60" height="60" fill="#121c33" opacity="0.35" rx="10" />
<rect x="340" y="340" width="60" height="60" fill="#121c33" opacity="0.35" rx="10" />
<rect x="400" y="340" width="60" height="60" fill="#121c33" opacity="0.35" rx="10" />
<rect x="460" y="340" width="60" height="60" fill="#121c33" opacity="0.35" rx="10" />
<rect x="520" y="340" width="60" height="60" fill="#121c33" opacity="0.35" rx="10" />
<rect x="580" y="340" width="60" height="60" fill="#121c33" opacity="0.35" rx="10" />
<rect x="640" y="340" width="60" height="60" fill="#121c33" opacity="0.35" rx="10" />
<rect x="700" y="340" width="60" height="60" fill="#121c33" opacity="0.35" rx="10" />
<rect x="760" y="340" width="60" height="60" fill="#121c33" opacity="0.35" rx="10" />
<rect x="220" y="400" width="60" height="60" fill="#121c33" opacity="0.35" rx="10" />
<rect x="280" y="400" width="60" height="60" fill="#121c33" opacity="0.35" rx="10" />
<rect x="340" y="400" width="60" height="60" fill="#121c33" opacity="0.35" rx="10" />
<rect x="400" y="400" width="60" height="60" fill="#121c33" opacity="0.35" rx="10" />
<rect x="460" y="400" width="60" height="60" fill="#121c33" opacity="0.35" rx="10" />
<rect x="520" y="400" width="60" height="60" fill="#121c33" opacity="0.35" rx="10" />
<rect x="528" y="408" width="44" height="44" fill="#73E8FF" stroke="#0c182c" stroke-width="1.2" rx="12" />
<rect x="580" y="400" width="60" height="60" fill="#121c33" opacity="0.35" rx="10" />
<rect x="640" y="400" width="60" height="60" fill="#121c33" opacity="0.35" rx="10" />
<rect x="700" y="400" width="60" height="60" fill="#121c33" opacity="0.35" rx="10" />
<rect x="760" y="400" width="60" height="60" fill="#121c33" opacity="0.35" rx="10" />
<rect x="220" y="460" width="60" height="60" fill="#121c33" opacity="0.35" rx="10" />
<rect x="280" y="460" width="60" height="60" fill="#121c33" opacity="0.35" rx="10" />
<rect x="340" y="460" width="60" height="60" fill="#121c33" opacity="0.35" rx="10" />
<rect x="400" y="460" width="60" height="60" fill="#121c33" opacity="0.35" rx="10" />
<rect x="460" y="460" width="60" height="60" fill="#121c33" opacity="0.35" rx="10" />
<rect x="468" y="468" width="44" height="44" fill="#73E8FF" stroke="#0c182c" stroke-width="1.2" rx="12" />
<rect x="520" y="460" width="60" height="60" fill="#121c33" opacity="0.35" rx="10" />
<rect x="528" y="468" width="44" height="44" fill="#73E8FF" stroke="#0c182c" stroke-width="1.2" rx="12" />
<rect x="580" y="460" width="60" height="60" fill="#121c33" opacity="0.35" rx="10" />
<rect x="640" y="460" width="60" height="60" fill="#121c33" opacity="0.35" rx="10" />
<rect x="700" y="460" width="60" height="60" fill="#121c33" opacity="0.35" rx="10" />
<rect x="760" y="460" width="60" height="60" fill="#121c33" opacity="0.35" rx="10" />
<rect x="220" y="520" width="60" height="60" fill="#121c33" opacity="0.35" rx="10" />
<rect x="280" y="520" width="60" height="60" fill="#121c33" opacity="0.35" rx="10" />
<rect x="340" y="520" width="60" height="60" fill="#121c33" opacity="0.35" rx="10" />
<rect x="400" y="520" width="60" height="60" fill="#121c33" opacity="0.35" rx="10" />
<rect x="408" y="528" width="44" height="44" fill="#4CC3FF" stroke="#0c182c" stroke-width="1.2" rx="12" />
<rect x="460" y="520" width="60" height="60" fill="#121c33" opacity="0.35" rx="10" />
<rect x="468" y="528" width="44" height="44" fill="#73E8FF" stroke="#0c182c" stroke-width="1.2" rx="12" />
<rect x="520" y="520" width="60" height="60" fill="#121c33" opacity="0.35" rx="10" />
<rect x="528" y="528" width="44" height="44" fill="#7CF2C7" stroke="#0c182c" stroke-width="1.2" rx="12" />
<rect x="580" y="520" width="60" height="60" fill="#121c33" opacity="0.35" rx="10" />
<rect x="640" y="520" width="60" height="60" fill="#121c33" opacity="0.35" rx="10" />
<rect x="700" y="520" width="60" height="60" fill="#121c33" opacity="0.35" rx="10" />
<rect x="760" y="520" width="60" height="60" fill="#121c33" opacity="0.35" rx="10" />
<rect x="220" y="580" width="60" height="60" fill="#121c33" opacity="0.35" rx="10" />
<rect x="280" y="580" width="60" height="60" fill="#121c33" opacity="0.35" rx="10" />
<rect x="340" y="580" width="60" height="60" fill="#121c33" opacity="0.35" rx="10" />
<rect x="400" y="580" width="60" height="60" fill="#121c33" opacity="0.35" rx="10" />
<rect x="408" y="588" width="44" height="44" fill="#4CC3FF" stroke="#0c182c" stroke-width="1.2" rx="12" />
<rect x="460" y="580" width="60" height="60" fill="#121c33" opacity="0.35" rx="10" />
<rect x="468" y="588" width="44" height="44" fill="#73E8FF" stroke="#0c182c" stroke-width="1.2" rx="12" />
<rect x="520" y="580" width="60" height="60" fill="#121c33" opacity="0.35" rx="10" />
<rect x="528" y="588" width="44" height="44" fill="#7CF2C7" stroke="#0c182c" stroke-width="1.2" rx="12" />
<rect x="580" y="580" width="60" height="60" fill="#121c33" opacity="0.35" rx="10" />
<rect x="588" y="588" width="44" height="44" fill="#7CF2C7" stroke="#0c182c" stroke-width="1.2" rx="12" />
<rect x="640" y="580" width="60" height="60" fill="#121c33" opacity="0.35" rx="10" />
<rect x="700" y="580" width="60" height="60" fill="#121c33" opacity="0.35" rx="10" />
<rect x="760" y="580" width="60" height="60" fill="#121c33" opacity="0.35" rx="10" />
<rect x="220" y="640" width="60" height="60" fill="#121c33" opacity="0.35" rx="10" />
<rect x="280" y="640" width="60" height="60" fill="#121c33" opacity="0.35" rx="10" />
<rect x="340" y="640" width="60" height="60" fill="#121c33" opacity="0.35" rx="10" />
<rect x="348" y="648" width="44" height="44" fill="#4CC3FF" stroke="#0c182c" stroke-width="1.2" rx="12" />
<rect x="400" y="640" width="60" height="60" fill="#121c33" opacity="0.35" rx="10" />
<rect x="408" y="648" width="44" height="44" fill="#4CC3FF" stroke="#0c182c" stroke-width="1.2" rx="12" />
<rect x="460" y="640" width="60" height="60" fill="#121c33" opacity="0.35" rx="10" />
<rect x="468" y="648" width="44" height="44" fill="#7CF2C7" stroke="#0c182c" stroke-width="1.2" rx="12" />
<rect x="520" y="640" width="60" height="60" fill="#121c33" opacity="0.35" rx="10" />
<rect x="528" y="648" width="44" height="44" fill="#7CF2C7" stroke="#0c182c" stroke-width="1.2" rx="12" />
<rect x="580" y="640" width="60" height="60" fill="#121c33" opacity="0.35" rx="10" />
<rect x="588" y="648" width="44" height="44" fill="#7CF2C7" stroke="#0c182c" stroke-width="1.2" rx="12" />
<rect x="640" y="640" width="60" height="60" fill="#121c33" opacity="0.35" rx="10" />
<rect x="700" y="640" width="60" height="60" fill="#121c33" opacity="0.35" rx="10" />
<rect x="760" y="640" width="60" height="60" fill="#121c33" opacity="0.35" rx="10" />
<rect x="220" y="700" width="60" height="60" fill="#121c33" opacity="0.35" rx="10" />
<rect x="280" y="700" width="60" height="60" fill="#121c33" opacity="0.35" rx="10" />
<rect x="340" y="700" width="60" height="60" fill="#121c33" opacity="0.35" rx="10" />
<rect x="348" y="708" width="44" height="44" fill="#4CC3FF" stroke="#0c182c" stroke-width="1.2" rx="12" />
<rect x="400" y="700" width="60" height="60" fill="#121c33" opacity="0.35" rx="10" />
<rect x="408" y="708" width="44" height="44" fill="#4CC3FF" stroke="#0c182c" stroke-width="1.2" rx="12" />
<rect x="460" y="700" width="60" height="60" fill="#121c33" opacity="0.35" rx="10" />
<rect x="468" y="708" width="44" height="44" fill="#7CF2C7" stroke="#0c182c" stroke-width="1.2" rx="12" />
<rect x="520" y="700" width="60" height="60" fill="#121c33" opacity="0.35" rx="10" />
<rect x="528" y="708" width="44" height="44" fill="#7CF2C7" stroke="#0c182c" stroke-width="1.2" rx="12" />
<rect x="580" y="700" width="60" height="60" fill="#121c33" opacity="0.35" rx="10" />
<rect x="588" y="708" width="44" height="44" fill="#7CF2C7" stroke="#0c182c" stroke-width="1.2" rx="12" />
<rect x="640" y="700" width="60" height="60" fill="#121c33" opacity="0.35" rx="10" />
<rect x="648" y="708" width="44" height="44" fill="#F7C266" stroke="#0c182c" stroke-width="1.2" rx="12" />
<rect x="700" y="700" width="60" height="60" fill="#121c33" opacity="0.35" rx="10" />
<rect x="760" y="700" width="60" height="60" fill="#121c33" opacity="0.35" rx="10" />
<rect x="220" y="760" width="60" height="60" fill="#121c33" opacity="0.35" rx="10" />
<rect x="280" y="760" width="60" height="60" fill="#121c33" opacity="0.35" rx="10" />
<rect x="288" y="768" width="44" height="44" fill="#4CC3FF" stroke="#0c182c" stroke-width="1.2" rx="12" />
<rect x="340" y="760" width="60" height="60" fill="#121c33" opacity="0.35" rx="10" />
<rect x="348" y="768" width="44" height="44" fill="#4CC3FF" stroke="#0c182c" stroke-width="1.2" rx="12" />
<rect x="400" y="760" width="60" height="60" fill="#121c33" opacity="0.35" rx="10" />
<rect x="408" y="768" width="44" height="44" fill="#7CF2C7" stroke="#0c182c" stroke-width="1.2" rx="12" />
<rect x="460" y="760" width="60" height="60" fill="#121c33" opacity="0.35" rx="10" />
<rect x="468" y="768" width="44" height="44" fill="#7CF2C7" stroke="#0c182c" stroke-width="1.2" rx="12" />
<rect x="520" y="760" width="60" height="60" fill="#121c33" opacity="0.35" rx="10" />
<rect x="528" y="768" width="44" height="44" fill="#7CF2C7" stroke="#0c182c" stroke-width="1.2" rx="12" />
<rect x="580" y="760" width="60" height="60" fill="#121c33" opacity="0.35" rx="10" />
<rect x="588" y="768" width="44" height="44" fill="#FF6B6B" stroke="#0c182c" stroke-width="1.2" rx="12" />
<rect x="640" y="760" width="60" height="60" fill="#121c33" opacity="0.35" rx="10" />
<rect x="648" y="768" width="44" height="44" fill="#F7C266" stroke="#0c182c" stroke-width="1.2" rx="12" />
<rect x="700" y="760" width="60" height="60" fill="#121c33" opacity="0.35" rx="10" />
<rect x="760" y="760" width="60" height="60" fill="#121c33" opacity="0.35" rx="10" />
<rect x="220" y="820" width="60" height="60" fill="#121c33" opacity="0.35" rx="10" />
<rect x="280" y="820" width="60" height="60" fill="#121c33" opacity="0.35" rx="10" />
<rect x="288" y="828" width="44" height="44" fill="#4CC3FF" stroke="#0c182c" stroke-width="1.2" rx="12" />
<rect x="340" y="820" width="60" height="60" fill="#121c33" opacity="0.35" rx="10" />
<rect x="348" y="828" width="44" height="44" fill="#4CC3FF" stroke="#0c182c" stroke-width="1.2" rx="12" />
<rect x="400" y="820" width="60" height="60" fill="#121c33" opacity="0.35" rx="10" />
<rect x="408" y="828" width="44" height="44" fill="#7CF2C7" stroke="#0c182c" stroke-width="1.2" rx="12" />
<rect x="460" y="820" width="60" height="60" fill="#121c33" opacity="0.35" rx="10" />
<rect x="468" y="828" width="44" height="44" fill="#7CF2C7" stroke="#0c182c" stroke-width="1.2" rx="12" />
<rect x="520" y="820" width="60" height="60" fill="#121c33" opacity="0.35" rx="10" />
<rect x="528" y="828" width="44" height="44" fill="#FF6B6B" stroke="#0c182c" stroke-width="1.2" rx="12" />
<rect x="580" y="820" width="60" height="60" fill="#121c33" opacity="0.35" rx="10" />
<rect x="588" y="828" width="44" height="44" fill="#FF6B6B" stroke="#0c182c" stroke-width="1.2" rx="12" />
<rect x="640" y="820" width="60" height="60" fill="#121c33" opacity="0.35" rx="10" />
<rect x="648" y="828" width="44" height="44" fill="#F7C266" stroke="#0c182c" stroke-width="1.2" rx="12" />
<rect x="700" y="820" width="60" height="60" fill="#121c33" opacity="0.35" rx="10" />
<rect x="760" y="820" width="60" height="60" fill="#121c33" opacity="0.35" rx="10" />
<rect x="220" y="880" width="60" height="60" fill="#121c33" opacity="0.35" rx="10" />
<rect x="228" y="888" width="44" height="44" fill="#4CC3FF" stroke="#0c182c" stroke-width="1.2" rx="12" />
<rect x="280" y="880" width="60" height="60" fill="#121c33" opacity="0.35" rx="10" />
<rect x="288" y="888" width="44" height="44" fill="#4CC3FF" stroke="#0c182c" stroke-width="1.2" rx="12" />
<rect x="340" y="880" width="60" height="60" fill="#121c33" opacity="0.35" rx="10" />
<rect x="348" y="888" width="44" height="44" fill="#7CF2C7" stroke="#0c182c" stroke-width="1.2" rx="12" />
<rect x="400" y="880" width="60" height="60" fill="#121c33" opacity="0.35" rx="10" />
<rect x="408" y="888" width="44" height="44" fill="#7CF2C7" stroke="#0c182c" stroke-width="1.2" rx="12" />
<rect x="460" y="880" width="60" height="60" fill="#121c33" opacity="0.35" rx="10" />
<rect x="468" y="888" width="44" height="44" fill="#FF6B6B" stroke="#0c182c" stroke-width="1.2" rx="12" />
<rect x="520" y="880" width="60" height="60" fill="#121c33" opacity="0.35" rx="10" />
<rect x="528" y="888" width="44" height="44" fill="#FF6B6B" stroke="#0c182c" stroke-width="1.2" rx="12" />
<rect x="580" y="880" width="60" height="60" fill="#121c33" opacity="0.35" rx="10" />
<rect x="588" y="888" width="44" height="44" fill="#F7C266" stroke="#0c182c" stroke-width="1.2" rx="12" />
<rect x="640" y="880" width="60" height="60" fill="#121c33" opacity="0.35" rx="10" />
<rect x="648" y="888" width="44" height="44" fill="#F7C266" stroke="#0c182c" stroke-width="1.2" rx="12" />
<rect x="700" y="880" width="60" height="60" fill="#121c33" opacity="0.35" rx="10" />
<rect x="760" y="880" width="60" height="60" fill="#121c33" opacity="0.35" rx="10" />
<rect x="220" y="940" width="60" height="60" fill="#121c33" opacity="0.35" rx="10" />
<rect x="228" y="948" width="44" height="44" fill="#4CC3FF" stroke="#0c182c" stroke-width="1.2" rx="12" />
<rect x="280" y="940" width="60" height="60" fill="#121c33" opacity="0.35" rx="10" />
<rect x="288" y="948" width="44" height="44" fill="#4CC3FF" stroke="#0c182c" stroke-width="1.2" rx="12" />
<rect x="340" y="940" width="60" height="60" fill="#121c33" opacity="0.35" rx="10" />
<rect x="348" y="948" width="44" height="44" fill="#7CF2C7" stroke="#0c182c" stroke-width="1.2" rx="12" />
<rect x="400" y="940" width="60" height="60" fill="#121c33" opacity="0.35" rx="10" />
<rect x="408" y="948" width="44" height="44" fill="#7CF2C7" stroke="#0c182c" stroke-width="1.2" rx="12" />
<rect x="460" y="940" width="60" height="60" fill="#121c33" opacity="0.35" rx="10" />
<rect x="468" y="948" width="44" height="44" fill="#FF6B6B" stroke="#0c182c" stroke-width="1.2" rx="12" />
<rect x="520" y="940" width="60" height="60" fill="#121c33" opacity="0.35" rx="10" />
<rect x="528" y="948" width="44" height="44" fill="#FF6B6B" stroke="#0c182c" stroke-width="1.2" rx="12" />
<rect x="580" y="940" width="60" height="60" fill="#121c33" opacity="0.35" rx="10" />
<rect x="588" y="948" width="44" height="44" fill="#F7C266" stroke="#0c182c" stroke-width="1.2" rx="12" />
<rect x="640" y="940" width="60" height="60" fill="#121c33" opacity="0.35" rx="10" />
<rect x="648" y="948" width="44" height="44" fill="#F7C266" stroke="#0c182c" stroke-width="1.2" rx="12" />
<rect x="700" y="940" width="60" height="60" fill="#121c33" opacity="0.35" rx="10" />
<rect x="708" y="948" width="44" height="44" fill="#FF6B6B" stroke="#0c182c" stroke-width="1.2" rx="12" />
<rect x="760" y="940" width="60" height="60" fill="#121c33" opacity="0.35" rx="10" />
<rect x="220" y="1000" width="60" height="60" fill="#121c33" opacity="0.35" rx="10" />
<rect x="228" y="1008" width="44" height="44" fill="#4CC3FF" stroke="#0c182c" stroke-width="1.2" rx="12" />
<rect x="280" y="1000" width="60" height="60" fill="#121c33" opacity="0.35" rx="10" />
<rect x="288" y="1008" width="44" height="44" fill="#4CC3FF" stroke="#0c182c" stroke-width="1.2" rx="12" />
<rect x="340" y="1000" width="60" height="60" fill="#121c33" opacity="0.35" rx="10" />
<rect x="348" y="1008" width="44" height="44" fill="#7CF2C7" stroke="#0c182c" stroke-width="1.2" rx="12" />
<rect x="400" y="1000" width="60" height="60" fill="#121c33" opacity="0.35" rx="10" />
<rect x="408" y="1008" width="44" height="44" fill="#7CF2C7" stroke="#0c182c" stroke-width="1.2" rx="12" />
<rect x="460" y="1000" width="60" height="60" fill="#121c33" opacity="0.35" rx="10" />
<rect x="468" y="1008" width="44" height="44" fill="#FF6B6B" stroke="#0c182c" stroke-width="1.2" rx="12" />
<rect x="520" y="1000" width="60" height="60" fill="#121c33" opacity="0.35" rx="10" />
<rect x="528" y="1008" width="44" height="44" fill="#FF6B6B" stroke="#0c182c" stroke-width="1.2" rx="12" />
<rect x="580" y="1000" width="60" height="60" fill="#121c33" opacity="0.35" rx="10" />
<rect x="588" y="1008" width="44" height="44" fill="#F7C266" stroke="#0c182c" stroke-width="1.2" rx="12" />
<rect x="640" y="1000" width="60" height="60" fill="#121c33" opacity="0.35" rx="10" />
<rect x="648" y="1008" width="44" height="44" fill="#F7C266" stroke="#0c182c" stroke-width="1.2" rx="12" />
<rect x="700" y="1000" width="60" height="60" fill="#121c33" opacity="0.35" rx="10" />
<rect x="708" y="1008" width="44" height="44" fill="#FF6B6B" stroke="#0c182c" stroke-width="1.2" rx="12" />
<rect x="760" y="1000" width="60" height="60" fill="#121c33" opacity="0.35" rx="10" />
<rect x="768" y="1008" width="44" height="44" fill="#FF6B6B" stroke="#0c182c" stroke-width="1.2" rx="12" />
<rect x="220" y="1060" width="60" height="60" fill="#121c33" opacity="0.35" rx="10" />
<rect x="228" y="1068" width="44" height="44" fill="#4CC3FF" stroke="#0c182c" stroke-width="1.2" rx="12" />
<rect x="280" y="1060" width="60" height="60" fill="#121c33" opacity="0.35" rx="10" />
<rect x="288" y="1068" width="44" height="44" fill="#4CC3FF" stroke="#0c182c" stroke-width="1.2" rx="12" />
<rect x="340" y="1060" width="60" height="60" fill="#121c33" opacity="0.35" rx="10" />
<rect x="348" y="1068" width="44" height="44" fill="#7CF2C7" stroke="#0c182c" stroke-width="1.2" rx="12" />
<rect x="400" y="1060" width="60" height="60" fill="#121c33" opacity="0.35" rx="10" />
<rect x="408" y="1068" width="44" height="44" fill="#7CF2C7" stroke="#0c182c" stroke-width="1.2" rx="12" />
<rect x="460" y="1060" width="60" height="60" fill="#121c33" opacity="0.35" rx="10" />
<rect x="468" y="1068" width="44" height="44" fill="#FF6B6B" stroke="#0c182c" stroke-width="1.2" rx="12" />
<rect x="520" y="1060" width="60" height="60" fill="#121c33" opacity="0.35" rx="10" />
<rect x="528" y="1068" width="44" height="44" fill="#FF6B6B" stroke="#0c182c" stroke-width="1.2" rx="12" />
<rect x="580" y="1060" width="60" height="60" fill="#121c33" opacity="0.35" rx="10" />
<rect x="588" y="1068" width="44" height="44" fill="#F7C266" stroke="#0c182c" stroke-width="1.2" rx="12" />
<rect x="640" y="1060" width="60" height="60" fill="#121c33" opacity="0.35" rx="10" />
<rect x="648" y="1068" width="44" height="44" fill="#F7C266" stroke="#0c182c" stroke-width="1.2" rx="12" />
<rect x="700" y="1060" width="60" height="60" fill="#121c33" opacity="0.35" rx="10" />
<rect x="708" y="1068" width="44" height="44" fill="#FF6B6B" stroke="#0c182c" stroke-width="1.2" rx="12" />
<rect x="760" y="1060" width="60" height="60" fill="#121c33" opacity="0.35" rx="10" />
<rect x="768" y="1068" width="44" height="44" fill="#FF6B6B" stroke="#0c182c" stroke-width="1.2" rx="12" />
<rect x="526" y="286" width="48" height="48" fill="#8BF4FF" stroke="#9cf6ff" stroke-width="2" rx="14" />
<rect x="466" y="346" width="48" height="48" fill="#8BF4FF" stroke="#9cf6ff" stroke-width="2" rx="14" />
<rect x="526" y="346" width="48" height="48" fill="#8BF4FF" stroke="#9cf6ff" stroke-width="2" rx="14" />
<rect x="586" y="346" width="48" height="48" fill="#8BF4FF" stroke="#9cf6ff" stroke-width="2" rx="14" />
<text x="80" y="1260" fill="#e5edff" font-family="Inter, SF Pro Display, sans-serif" font-size="40" font-weight="700" opacity="1.0">Today is messy</text>
<text x="80" y="1310" fill="#8aa0c2" font-family="Inter, SF Pro Display, sans-serif" font-size="24" font-weight="500" opacity="1.0">Chaotic stacking, expect flurries and gusts</text>
<rect x="80" y="1348" width="180" height="54" fill="#142038" stroke="#1f2d4b" stroke-width="1.5" rx="18" />
<text x="98" y="1380" fill="#d8e3ff" font-family="Inter, SF Pro Display, sans-serif" font-size="22" font-weight="600" opacity="1.0">Precip 70%</text>
<rect x="300" y="1348" width="180" height="54" fill="#142038" stroke="#1f2d4b" stroke-width="1.5" rx="18" />
<text x="318" y="1380" fill="#d8e3ff" font-family="Inter, SF Pro Display, sans-serif" font-size="22" font-weight="600" opacity="1.0">Wind 22 km/h</text>
<rect x="560" y="1348" width="180" height="54" fill="#142038" stroke="#1f2d4b" stroke-width="1.5" rx="18" />
<text x="578" y="1380" fill="#d8e3ff" font-family="Inter, SF Pro Display, sans-serif" font-size="22" font-weight="600" opacity="1.0">Pressure ↓</text>
<text x="80" y="1455" fill="#7384a9" font-family="Inter, SF Pro Display, sans-serif" font-size="22" font-weight="500" opacity="1.0">Swipe down for details</text>
<text x="80" y="1500" fill="#7384a9" font-family="Inter, SF Pro Display, sans-serif" font-size="22" font-weight="500" opacity="1.0">Widgets mirror the stack hourly</text>
</svg>
