<?xml version="1.0" encoding="UTF-8"?>
<svg width="320px" height="320px" viewBox="0 0 320 320" xmlns="http://www.w3.org/2000/svg" shape-rendering="crispEdges">
<defs>
    <linearGradient id="bgSmall" x1="0%" x2="100%" y1="0%" y2="100%">
      <stop offset="0%" stop-color="#0f1628" />
      <stop offset="100%" stop-color="#0c1020" />
    </linearGradient>
    </defs>
<rect x="0" y="0" width="320" height="320" fill="url(#bgSmall)" stroke="#1b233a" stroke-width="2" rx="26" />
<text x="24" y="46" fill="#d8e3ff" font-family="Inter, SF Pro Display, sans-serif" font-size="26" font-weight="700" opacity="1.0">Now · -5°C</text>
<text x="24" y="72" fill="#8aa0c2" font-family="Inter, SF Pro Display, sans-serif" font-size="18" font-weight="500" opacity="1.0">Snowy, calm</text>
<rect x="40" y="70" width="60" height="60" fill="#121c33" opacity="0.35" rx="10" />
<rect x="48" y="78" width="44" height="44" fill="#4CC3FF" stroke="#0c182c" stroke-width="1.2" rx="12" />
<rect x="100" y="70" width="60" height="60" fill="#121c33" opacity="0.35" rx="10" />
<rect x="108" y="78" width="44" height="44" fill="#4CC3FF" stroke="#0c182c" stroke-width="1.2" rx="12" />
<rect x="160" y="70" width="60" height="60" fill="#121c33" opacity="0.35" rx="10" />
<rect x="168" y="78" width="44" height="44" fill="#7CF2C7" stroke="#0c182c" stroke-width="1.2" rx="12" />
<rect x="220" y="70" width="60" height="60" fill="#121c33" opacity="0.35" rx="10" />
<rect x="40" y="130" width="60" height="60" fill="#121c33" opacity="0.35" rx="10" />
<rect x="48" y="138" width="44" height="44" fill="#4CC3FF" stroke="#0c182c" stroke-width="1.2" rx="12" />
<rect x="100" y="130" width="60" height="60" fill="#121c33" opacity="0.35" rx="10" />
<rect x="108" y="138" width="44" height="44" fill="#4CC3FF" stroke="#0c182c" stroke-width="1.2" rx="12" />
<rect x="160" y="130" width="60" height="60" fill="#121c33" opacity="0.35" rx="10" />
<rect x="168" y="138" width="44" height="44" fill="#F7C266" stroke="#0c182c" stroke-width="1.2" rx="12" />
<rect x="220" y="130" width="60" height="60" fill="#121c33" opacity="0.35" rx="10" />
<rect x="228" y="138" width="44" height="44" fill="#F7C266" stroke="#0c182c" stroke-width="1.2" rx="12" />
<rect x="40" y="190" width="60" height="60" fill="#121c33" opacity="0.35" rx="10" />
<rect x="100" y="190" width="60" height="60" fill="#121c33" opacity="0.35" rx="10" />
<rect x="108" y="198" width="44" height="44" fill="#7CF2C7" stroke="#0c182c" stroke-width="1.2" rx="12" />
<rect x="160" y="190" width="60" height="60" fill="#121c33" opacity="0.35" rx="10" />
<rect x="168" y="198" width="44" height="44" fill="#FF6B6B" stroke="#0c182c" stroke-width="1.2" rx="12" />
<rect x="220" y="190" width="60" height="60" fill="#121c33" opacity="0.35" rx="10" />
<rect x="228" y="198" width="44" height="44" fill="#F7C266" stroke="#0c182c" stroke-width="1.2" rx="12" />
<rect x="40" y="250" width="60" height="60" fill="#121c33" opacity="0.35" rx="10" />
<rect x="100" y="250" width="60" height="60" fill="#121c33" opacity="0.35" rx="10" />
<rect x="160" y="250" width="60" height="60" fill="#121c33" opacity="0.35" rx="10" />
<rect x="168" y="258" width="44" height="44" fill="#FF6B6B" stroke="#0c182c" stroke-width="1.2" rx="12" />
<rect x="220" y="250" width="60" height="60" fill="#121c33" opacity="0.35" rx="10" />
<rect x="228" y="258" width="44" height="44" fill="#F7C266" stroke="#0c182c" stroke-width="1.2" rx="12" />
</svg>
