<?xml version="1.0" encoding="UTF-8"?>
<svg width="560px" height="560px" viewBox="0 0 560 560" xmlns="http://www.w3.org/2000/svg" shape-rendering="crispEdges">
<defs>
    <linearGradient id="bgLarge" x1="0%" x2="100%" y1="0%" y2="100%">
      <stop offset="0%" stop-color="#0f182c" />
      <stop offset="100%" stop-color="#0c1020" />
    </linearGradient>
    </defs>
<rect x="0" y="0" width="560" height="560" fill="url(#bgLarge)" stroke="#1b233a" stroke-width="2" rx="30" />
<text x="24" y="56" fill="#d8e3ff" font-family="Inter, SF Pro Display, sans-serif" font-size="28" font-weight="700" opacity="1.0">Today trend</text>
<text x="24" y="84" fill="#8aa0c2" font-family="Inter, SF Pro Display, sans-serif" font-size="18" font-weight="500" opacity="1.0">Line clear = sunny break</text>
<rect x="54" y="90" width="54" height="54" fill="#121c33" opacity="0.35" rx="10" />
<rect x="108" y="90" width="54" height="54" fill="#121c33" opacity="0.35" rx="10" />
<rect x="162" y="90" width="54" height="54" fill="#121c33" opacity="0.35" rx="10" />
<rect x="170" y="98" width="38" height="38" fill="#73E8FF" stroke="#0c182c" stroke-width="1.2" rx="12" />
<rect x="216" y="90" width="54" height="54" fill="#121c33" opacity="0.35" rx="10" />
<rect x="224" y="98" width="38" height="38" fill="#73E8FF" stroke="#0c182c" stroke-width="1.2" rx="12" />
<rect x="270" y="90" width="54" height="54" fill="#121c33" opacity="0.35" rx="10" />
<rect x="278" y="98" width="38" height="38" fill="#7CF2C7" stroke="#0c182c" stroke-width="1.2" rx="12" />
<rect x="324" y="90" width="54" height="54" fill="#121c33" opacity="0.35" rx="10" />
<rect x="332" y="98" width="38" height="38" fill="#7CF2C7" stroke="#0c182c" stroke-width="1.2" rx="12" />
<rect x="378" y="90" width="54" height="54" fill="#121c33" opacity="0.35" rx="10" />
<rect x="432" y="90" width="54" height="54" fill="#121c33" opacity="0.35" rx="10" />
<rect x="54" y="144" width="54" height="54" fill="#121c33" opacity="0.35" rx="10" />
<rect x="108" y="144" width="54" height="54" fill="#121c33" opacity="0.35" rx="10" />
<rect x="162" y="144" width="54" height="54" fill="#121c33" opacity="0.35" rx="10" />
<rect x="170" y="152" width="38" height="38" fill="#73E8FF" stroke="#0c182c" stroke-width="1.2" rx="12" />
<rect x="216" y="144" width="54" height="54" fill="#121c33" opacity="0.35" rx="10" />
<rect x="224" y="152" width="38" height="38" fill="#73E8FF" stroke="#0c182c" stroke-width="1.2" rx="12" />
<rect x="270" y="144" width="54" height="54" fill="#121c33" opacity="0.35" rx="10" />
<rect x="278" y="152" width="38" height="38" fill="#7CF2C7" stroke="#0c182c" stroke-width="1.2" rx="12" />
<rect x="324" y="144" width="54" height="54" fill="#121c33" opacity="0.35" rx="10" />
<rect x="332" y="152" width="38" height="38" fill="#7CF2C7" stroke="#0c182c" stroke-width="1.2" rx="12" />
<rect x="378" y="144" width="54" height="54" fill="#121c33" opacity="0.35" rx="10" />
<rect x="432" y="144" width="54" height="54" fill="#121c33" opacity="0.35" rx="10" />
<rect x="54" y="198" width="54" height="54" fill="#121c33" opacity="0.35" rx="10" />
<rect x="108" y="198" width="54" height="54" fill="#121c33" opacity="0.35" rx="10" />
<rect x="116" y="206" width="38" height="38" fill="#4CC3FF" stroke="#0c182c" stroke-width="1.2" rx="12" />
<rect x="162" y="198" width="54" height="54" fill="#121c33" opacity="0.35" rx="10" />
<rect x="170" y="206" width="38" height="38" fill="#4CC3FF" stroke="#0c182c" stroke-width="1.2" rx="12" />
<rect x="216" y="198" width="54" height="54" fill="#121c33" opacity="0.35" rx="10" />
<rect x="224" y="206" width="38" height="38" fill="#7CF2C7" stroke="#0c182c" stroke-width="1.2" rx="12" />
<rect x="270" y="198" width="54" height="54" fill="#121c33" opacity="0.35" rx="10" />
<rect x="278" y="206" width="38" height="38" fill="#7CF2C7" stroke="#0c182c" stroke-width="1.2" rx="12" />
<rect x="324" y="198" width="54" height="54" fill="#121c33" opacity="0.35" rx="10" />
<rect x="332" y="206" width="38" height="38" fill="#7CF2C7" stroke="#0c182c" stroke-width="1.2" rx="12" />
<rect x="378" y="198" width="54" height="54" fill="#121c33" opacity="0.35" rx="10" />
<rect x="386" y="206" width="38" height="38" fill="#F7C266" stroke="#0c182c" stroke-width="1.2" rx="12" />
<rect x="432" y="198" width="54" height="54" fill="#121c33" opacity="0.35" rx="10" />
<rect x="54" y="252" width="54" height="54" fill="#121c33" opacity="0.35" rx="10" />
<rect x="108" y="252" width="54" height="54" fill="#121c33" opacity="0.35" rx="10" />
<rect x="116" y="260" width="38" height="38" fill="#4CC3FF" stroke="#0c182c" stroke-width="1.2" rx="12" />
<rect x="162" y="252" width="54" height="54" fill="#121c33" opacity="0.35" rx="10" />
<rect x="170" y="260" width="38" height="38" fill="#4CC3FF" stroke="#0c182c" stroke-width="1.2" rx="12" />
<rect x="216" y="252" width="54" height="54" fill="#121c33" opacity="0.35" rx="10" />
<rect x="224" y="260" width="38" height="38" fill="#7CF2C7" stroke="#0c182c" stroke-width="1.2" rx="12" />
<rect x="270" y="252" width="54" height="54" fill="#121c33" opacity="0.35" rx="10" />
<rect x="278" y="260" width="38" height="38" fill="#7CF2C7" stroke="#0c182c" stroke-width="1.2" rx="12" />
<rect x="324" y="252" width="54" height="54" fill="#121c33" opacity="0.35" rx="10" />
<rect x="332" y="260" width="38" height="38" fill="#F7C266" stroke="#0c182c" stroke-width="1.2" rx="12" />
<rect x="378" y="252" width="54" height="54" fill="#121c33" opacity="0.35" rx="10" />
<rect x="386" y="260" width="38" height="38" fill="#F7C266" stroke="#0c182c" stroke-width="1.2" rx="12" />
<rect x="432" y="252" width="54" height="54" fill="#121c33" opacity="0.35" rx="10" />
<rect x="54" y="306" width="54" height="54" fill="#121c33" opacity="0.35" rx="10" />
<rect x="108" y="306" width="54" height="54" fill="#121c33" opacity="0.35" rx="10" />
<rect x="116" y="314" width="38" height="38" fill="#4CC3FF" stroke="#0c182c" stroke-width="1.2" rx="12" />
<rect x="162" y="306" width="54" height="54" fill="#121c33" opacity="0.35" rx="10" />
<rect x="170" y="314" width="38" height="38" fill="#4CC3FF" stroke="#0c182c" stroke-width="1.2" rx="12" />
<rect x="216" y="306" width="54" height="54" fill="#121c33" opacity="0.35" rx="10" />
<rect x="224" y="314" width="38" height="38" fill="#7CF2C7" stroke="#0c182c" stroke-width="1.2" rx="12" />
<rect x="270" y="306" width="54" height="54" fill="#121c33" opacity="0.35" rx="10" />
<rect x="278" y="314" width="38" height="38" fill="#FF6B6B" stroke="#0c182c" stroke-width="1.2" rx="12" />
<rect x="324" y="306" width="54" height="54" fill="#121c33" opacity="0.35" rx="10" />
<rect x="332" y="314" width="38" height="38" fill="#F7C266" stroke="#0c182c" stroke-width="1.2" rx="12" />
<rect x="378" y="306" width="54" height="54" fill="#121c33" opacity="0.35" rx="10" />
<rect x="386" y="314" width="38" height="38" fill="#F7C266" stroke="#0c182c" stroke-width="1.2" rx="12" />
<rect x="432" y="306" width="54" height="54" fill="#121c33" opacity="0.35" rx="10" />
<rect x="54" y="360" width="54" height="54" fill="#121c33" opacity="0.35" rx="10" />
<rect x="62" y="368" width="38" height="38" fill="#4CC3FF" stroke="#0c182c" stroke-width="1.2" rx="12" />
<rect x="108" y="360" width="54" height="54" fill="#121c33" opacity="0.35" rx="10" />
<rect x="116" y="368" width="38" height="38" fill="#4CC3FF" stroke="#0c182c" stroke-width="1.2" rx="12" />
<rect x="162" y="360" width="54" height="54" fill="#121c33" opacity="0.35" rx="10" />
<rect x="170" y="368" width="38" height="38" fill="#7CF2C7" stroke="#0c182c" stroke-width="1.2" rx="12" />
<rect x="216" y="360" width="54" height="54" fill="#121c33" opacity="0.35" rx="10" />
<rect x="224" y="368" width="38" height="38" fill="#7CF2C7" stroke="#0c182c" stroke-width="1.2" rx="12" />
<rect x="270" y="360" width="54" height="54" fill="#121c33" opacity="0.35" rx="10" />
<rect x="278" y="368" width="38" height="38" fill="#FF6B6B" stroke="#0c182c" stroke-width="1.2" rx="12" />
<rect x="324" y="360" width="54" height="54" fill="#121c33" opacity="0.35" rx="10" />
<rect x="332" y="368" width="38" height="38" fill="#FF6B6B" stroke="#0c182c" stroke-width="1.2" rx="12" />
<rect x="378" y="360" width="54" height="54" fill="#121c33" opacity="0.35" rx="10" />
<rect x="386" y="368" width="38" height="38" fill="#F7C266" stroke="#0c182c" stroke-width="1.2" rx="12" />
<rect x="432" y="360" width="54" height="54" fill="#121c33" opacity="0.35" rx="10" />
<rect x="440" y="368" width="38" height="38" fill="#F7C266" stroke="#0c182c" stroke-width="1.2" rx="12" />
<rect x="54" y="414" width="54" height="54" fill="#121c33" opacity="0.35" rx="10" />
<rect x="62" y="422" width="38" height="38" fill="#4CC3FF" stroke="#0c182c" stroke-width="1.2" rx="12" />
<rect x="108" y="414" width="54" height="54" fill="#121c33" opacity="0.35" rx="10" />
<rect x="116" y="422" width="38" height="38" fill="#4CC3FF" stroke="#0c182c" stroke-width="1.2" rx="12" />
<rect x="162" y="414" width="54" height="54" fill="#121c33" opacity="0.35" rx="10" />
<rect x="170" y="422" width="38" height="38" fill="#7CF2C7" stroke="#0c182c" stroke-width="1.2" rx="12" />
<rect x="216" y="414" width="54" height="54" fill="#121c33" opacity="0.35" rx="10" />
<rect x="224" y="422" width="38" height="38" fill="#7CF2C7" stroke="#0c182c" stroke-width="1.2" rx="12" />
<rect x="270" y="414" width="54" height="54" fill="#121c33" opacity="0.35" rx="10" />
<rect x="278" y="422" width="38" height="38" fill="#FF6B6B" stroke="#0c182c" stroke-width="1.2" rx="12" />
<rect x="324" y="414" width="54" height="54" fill="#121c33" opacity="0.35" rx="10" />
<rect x="332" y="422" width="38" height="38" fill="#FF6B6B" stroke="#0c182c" stroke-width="1.2" rx="12" />
<rect x="378" y="414" width="54" height="54" fill="#121c33" opacity="0.35" rx="10" />
<rect x="386" y="422" width="38" height="38" fill="#F7C266" stroke="#0c182c" stroke-width="1.2" rx="12" />
<rect x="432" y="414" width="54" height="54" fill="#121c33" opacity="0.35" rx="10" />
<rect x="440" y="422" width="38" height="38" fill="#F7C266" stroke="#0c182c" stroke-width="1.2" rx="12" />
<rect x="54" y="468" width="54" height="54" fill="#121c33" opacity="0.35" rx="10" />
<rect x="62" y="476" width="38" height="38" fill="#4CC3FF" stroke="#0c182c" stroke-width="1.2" rx="12" />
<rect x="108" y="468" width="54" height="54" fill="#121c33" opacity="0.35" rx="10" />
<rect x="116" y="476" width="38" height="38" fill="#4CC3FF" stroke="#0c182c" stroke-width="1.2" rx="12" />
<rect x="162" y="468" width="54" height="54" fill="#121c33" opacity="0.35" rx="10" />
<rect x="170" y="476" width="38" height="38" fill="#7CF2C7" stroke="#0c182c" stroke-width="1.2" rx="12" />
<rect x="216" y="468" width="54" height="54" fill="#121c33" opacity="0.35" rx="10" />
<rect x="224" y="476" width="38" height="38" fill="#7CF2C7" stroke="#0c182c" stroke-width="1.2" rx="12" />
<rect x="270" y="468" width="54" height="54" fill="#121c33" opacity="0.35" rx="10" />
<rect x="278" y="476" width="38" height="38" fill="#FF6B6B" stroke="#0c182c" stroke-width="1.2" rx="12" />
<rect x="324" y="468" width="54" height="54" fill="#121c33" opacity="0.35" rx="10" />
<rect x="332" y="476" width="38" height="38" fill="#FF6B6B" stroke="#0c182c" stroke-width="1.2" rx="12" />
<rect x="378" y="468" width="54" height="54" fill="#121c33" opacity="0.35" rx="10" />
<rect x="386" y="476" width="38" height="38" fill="#F7C266" stroke="#0c182c" stroke-width="1.2" rx="12" />
<rect x="432" y="468" width="54" height="54" fill="#121c33" opacity="0.35" rx="10" />
<rect x="440" y="476" width="38" height="38" fill="#F7C266" stroke="#0c182c" stroke-width="1.2" rx="12" />
<rect x="54" y="300" width="432" height="8" fill="#7cf2c7" opacity="0.5" />
</svg>
